<?xml version="1.0" encoding="UTF-8"?> <svg xmlns="http://www.w3.org/2000/svg" width="281.992" height="285.019" viewBox="0 0 281.992 285.019"><g id="Group_2038" data-name="Group 2038" transform="translate(4986.361 2809.517)"><g class="number"><g id="Group_1807" data-name="Group 1807" transform="translate(-5047 -3370)"><path id="wRectangle_988" data-name="Rectangle 988" d="M0,0H94a20,20,0,0,1,20,20V95a0,0,0,0,1,0,0H20A20,20,0,0,1,0,75V0A0,0,0,0,1,0,0Z" transform="translate(228 684)" fill="#1b53ee"></path><text id="_2_" data-name="2" transform="translate(276.001 716)" fill="#fff" font-size="31" font-family="ProximaNova-Black, Proxima Nova" font-weight="800"><tspan x="-1.502" y="24">2</tspan></text></g></g><g id="Group_1387" data-name="Group 1387" transform="translate(-5497.83 -3030.94)"><g class="block-1"><path id="Path_1933" data-name="Path 1933" d="M568.041,387.565l-13.51,5.37,20.4,8-3.6,8.112h3.6l11.6-10.527-11.2-4.976s-1.046-11.409-2.4-10.055S568.041,387.565,568.041,387.565Z" transform="translate(25.521 96.798)" fill="#0ac789" stroke="#0ac789" stroke-miterlimit="10" stroke-width="1"></path><path id="Path_1938" data-name="Path 1938" d="M551.876,392.463l-19.762-7.755-6.122,16.66-9.767-13.332,6.171,19.806,14.477-7.553,11.807,7.35Z" transform="translate(2.553 97.599)" stroke="#000" stroke-linecap="square" stroke-linejoin="round" stroke-width="1"></path><path id="Path_1939" data-name="Path 1939" d="M554.492,383.36c2.008-.6,3.594,4.252,7.6,6.4,5.1,2.737,9.243-1.537,16.4-1.6,11.733-.1,21.649,11.213,20.8,12.8-.774,1.435-11.909-2.342-16.8-4-4.425-1.5-7.094-2.686-11.2-2.4-4.826.336-8.961,2.519-8.8,3.6.2,1.352,6.955-.338,10.4,3.6,2.049,2.343,2.5,6.2,1.2,7.2-1.173.9-3.038-1.065-8.4-3.2-5.3-2.11-6.8-1.51-12.4-4-3.238-1.44-5.987-2.7-6-4.4-.014-2.19,4.517-3.759,4.4-4-.157-.32-7.929,2.974-15.2,5.6-7.03,2.54-8.886,2.756-10.8,2-4.239-1.676-6.8-7.352-5.6-8.8.451-.545,1.318-.346,4,0,4.924.633,7.385.95,9.2.8,4.962-.411,4.561-3.578,10-4.4,4.159-.629,6.266.941,8.4-.8C553.671,386.143,553.1,383.773,554.492,383.36Z" transform="translate(4.699 96.761)" fill="#fff" stroke="#0ac789" stroke-linecap="round" stroke-linejoin="round" stroke-width="1"></path></g><g class="bottles"><path id="Path_1940" data-name="Path 1940" d="M680.969,388.98a7.992,7.992,0,0,0-6.574-7.242V362.521a1.6,1.6,0,0,0-1.6-1.6h-3.2a1.6,1.6,0,0,0-1.6,1.6v19.427a7.974,7.974,0,0,0-5.773,7.032l-.889,31.9a1.6,1.6,0,0,0,1.595,1.724h17.335a1.6,1.6,0,0,0,1.595-1.724Z" transform="translate(89.56 83.336)" fill="#0ac789" stroke="#0ac789" stroke-miterlimit="10" stroke-width="1"></path><path id="Path_1941" data-name="Path 1941" d="M685.355,406.855l-14.507.968,14.966-16-6.739-5.773,3.249-1.548,15,4.509-7.965,9.311s3.967,10.748,2.163,10.11S685.355,406.855,685.355,406.855Z" transform="translate(95.268 97.478)" fill="#1b53ee" stroke="#fff" stroke-linecap="round" stroke-linejoin="round" stroke-width="1"></path><g id="Group_1384" data-name="Group 1384" transform="translate(733.117 477.669)"><rect id="Rectangle_830" data-name="Rectangle 830" width="13.797" height="28.271" rx="2" fill="#1b53ee" stroke="#fff" stroke-miterlimit="10" stroke-width="1"></rect><line id="Line_774" data-name="Line 774" x2="13.797" transform="translate(0 5.969)" fill="none" stroke="#fff" stroke-miterlimit="10" stroke-width="1"></line></g><g id="Group_1385" data-name="Group 1385" transform="translate(713.552 464.857)"><path id="Path_1934" data-name="Path 1934" d="M654.926,392.292v-10.3a5.772,5.772,0,0,0-5.771-5.771H643.8a5.772,5.772,0,0,0-5.771,5.771v10.3a.824.824,0,0,0,.825.824h.2a.825.825,0,0,1,.824.825v1.766a.825.825,0,0,1-.824.825h-.2a.824.824,0,0,0-.825.822v10.306a5.773,5.773,0,0,0,5.771,5.771h5.359a5.773,5.773,0,0,0,5.771-5.771V397.355a.824.824,0,0,0-.825-.822h-.2a.825.825,0,0,1-.825-.825v-1.766a.825.825,0,0,1,.825-.825h.2A.824.824,0,0,0,654.926,392.292Z" transform="translate(-637.966 -372.35)" fill="#fff"></path><path id="Path_1935" data-name="Path 1935" d="M654.926,392.292v-10.3a5.772,5.772,0,0,0-5.771-5.771H643.8a5.772,5.772,0,0,0-5.771,5.771v10.3a.824.824,0,0,0,.825.824h.2a.825.825,0,0,1,.824.825v1.766a.825.825,0,0,1-.824.825h-.2a.824.824,0,0,0-.825.822v10.306a5.773,5.773,0,0,0,5.771,5.771h5.359a5.773,5.773,0,0,0,5.771-5.771V397.355a.824.824,0,0,0-.825-.822h-.2a.825.825,0,0,1-.825-.825v-1.766a.825.825,0,0,1,.825-.825h.2A.824.824,0,0,0,654.926,392.292Z" transform="translate(-637.966 -372.35)" fill="none" stroke="#000" stroke-miterlimit="10" stroke-width="1"></path><line id="Line_775" data-name="Line 775" x2="8.45" transform="translate(0 9.637)" fill="none" stroke="#000" stroke-miterlimit="10" stroke-width="1"></line><line id="Line_776" data-name="Line 776" x2="8.45" transform="translate(0 12.522)" fill="none" stroke="#000" stroke-miterlimit="10" stroke-width="1"></line><line id="Line_777" data-name="Line 777" x2="8.45" transform="translate(0 15.407)" fill="none" stroke="#000" stroke-miterlimit="10" stroke-width="1"></line><path id="Path_1936" data-name="Path 1936" d="M642.234,377.665V375.4a1.413,1.413,0,0,1,1.6-1.6h.234a1.413,1.413,0,0,1,1.6,1.6v2.267Z" transform="translate(-635.442 -373.799)" fill="#fff"></path><path id="Path_1937" data-name="Path 1937" d="M642.234,377.665V375.4a1.413,1.413,0,0,1,1.6-1.6h.234a1.413,1.413,0,0,1,1.6,1.6v2.267Z" transform="translate(-635.442 -373.799)" fill="none" stroke="#000" stroke-miterlimit="10" stroke-width="1"></path></g></g><g class="human"><path id="Path_1942" data-name="Path 1942" d="M579.083,274.409A64.556,64.556,0,0,0,580,284.754a117.5,117.5,0,0,0,3.4,13.643l3.2,1.489q1.807-.358,3.676-.817a85.018,85.018,0,0,0,17.266-6.3l31.8,7.117,11.055.853s4.138-.5,5.592-1.873,2.1-4.914,2.1-4.914v-21.36l-9.182,1.224-6.57,3.343L624.5,275.874,591.79,279.6c-1.6-.827-3.326-1.651-5.186-2.444A76.022,76.022,0,0,0,579.083,274.409Z" transform="translate(40.243 30.372)" fill="#fff"></path><path id="Path_1943" data-name="Path 1943" d="M588.148,302.443l21.321,30.115,2.708,32.605s10.4,4.813,10.273,2.128,14.641-43.884,14.641-45.58-1.566-24.6-1.566-24.6l-47.378,3.081Z" transform="translate(45.679 45.072)" fill="#fff"></path><path id="Path_1944" data-name="Path 1944" d="M588.148,302.443l21.321,30.115,2.708,32.605s10.4,4.813,10.273,2.128,14.641-43.884,14.641-45.58-1.566-24.6-1.566-24.6l-47.378,3.081Z" transform="translate(45.679 45.072)" fill="none" stroke="#fff" stroke-width="1"></path><path id="Path_1945" data-name="Path 1945" d="M627.174,298.99c.013,1.333.053,3.766.2,6.8a180.833,180.833,0,0,0,2.8,24.194c3.322,18.823-1.665,73.175-2.4,81.181-.694,7.558-1.628,18.786-2.4,32.592a14,14,0,0,0,3.8,4.6c4.682,3.612,11.049,6.419,13.008,7.966a1.119,1.119,0,0,1-.688,2.009c-11.685.067-15.372-.072-27.058,0a2.859,2.859,0,0,1-2.9-2.8,17.913,17.913,0,0,1,.44-4.172,18.226,18.226,0,0,1,2.2-5.4c3.758-6.552-1.493-22.36-6.229-41.433a87.19,87.19,0,0,1-2.331-15.822c-.046-.877-.066-1.708-.069-2.574-.029-7.336.843-9.652.4-14.4a30.571,30.571,0,0,0-1-5.37" transform="translate(55.754 46.201)" fill="#fff"></path><path id="Path_1946" data-name="Path 1946" d="M608.583,370.462a25.041,25.041,0,0,0,5.866.331c2.166-.138,3.255-.48,6.131-.8a43.779,43.779,0,0,1,4.8-.267,97.233,97.233,0,0,0-1.465,10.6c-.457,5.581-.217,8.7-1.334,14.461a20.94,20.94,0,0,1-2.4,7.2c-1.75,2.98-4.946,6.394-6.4,5.731-1.193-.544-.272-3.414-.133-9.063.194-7.8-1.269-14.018-2.532-19.394C610.512,376.692,609.7,373.725,608.583,370.462Z" transform="translate(57.932 88.616)" fill="#0ac789" stroke="#0ac789" stroke-linecap="round" stroke-linejoin="round" stroke-width="1"></path><path id="Path_1947" data-name="Path 1947" d="M627.174,298.99c.013,1.333.053,3.766.2,6.8a180.833,180.833,0,0,0,2.8,24.194c3.322,18.823-1.665,73.175-2.4,81.181-.694,7.558-1.628,18.786-2.4,32.592a14,14,0,0,0,3.8,4.6c4.682,3.612,11.049,6.419,13.008,7.966a1.119,1.119,0,0,1-.688,2.009c-11.685.067-15.372-.072-27.058,0a2.859,2.859,0,0,1-2.9-2.8,17.913,17.913,0,0,1,.44-4.172,18.226,18.226,0,0,1,2.2-5.4c3.758-6.552-1.493-22.36-6.229-41.433a87.19,87.19,0,0,1-2.331-15.822c-.046-.877-.066-1.708-.069-2.574-.029-7.336.843-9.652.4-14.4a30.571,30.571,0,0,0-1-5.37" transform="translate(55.754 46.201)" fill="none" stroke="#000" stroke-linecap="round" stroke-linejoin="round" stroke-width="1"></path><path id="Path_1948" data-name="Path 1948" d="M590.046,298.213c-.285.806-.717,2.059-1.2,3.6a119.269,119.269,0,0,0-5.05,40.434,157.151,157.151,0,0,0,2.6,24.394c.072.318.43,1.878.729,4.007a50.1,50.1,0,0,1,.47,5.591c.024.869.043,2.395-.067,4.284a50.133,50.133,0,0,1-.733,6.114c-.931,5.26-.8,19.112,1.4,33.992.513,3.465,1.318,8.2,2.6,13.8,1.366,7.25.513,11.153-.6,13.4a15.03,15.03,0,0,0-1.4,3.8,14.149,14.149,0,0,0-.035,4.8,2.483,2.483,0,0,0,2.38,2.135c9.385.318,30.428.981,30.575.325.222-.987-12.162-6.589-16.524-9.857-1.31-.982-3.316-5.372-3.6-7.6-2.98-23.55,6.883-33.9,12-64.985,1.5-9.137,1.46-13.163,4.05-21.838a111.292,111.292,0,0,1,7.093-17.567" transform="translate(43.015 45.735)" fill="#fff"></path><path id="Path_1949" data-name="Path 1949" d="M586.667,370.836a30.386,30.386,0,0,0,3.865,0c2.422-.152,3.578-.515,6.133-.8a43.728,43.728,0,0,1,4.8-.267,45.252,45.252,0,0,0-2.134,10.265c-.507,5.871.477,8.414-.665,14.8a20.4,20.4,0,0,1-2.4,7.2c-1.752,2.98-4.946,6.4-6.4,5.731-1.195-.544-.254-3.41-.134-9.063.107-4.97-.555-5.7-2.132-19.2C587.169,375.819,586.861,372.8,586.667,370.836Z" transform="translate(44.791 88.642)" fill="#0ac789" stroke="#0ac789" stroke-linecap="round" stroke-linejoin="round" stroke-width="1"></path><path id="Path_1950" data-name="Path 1950" d="M590.046,298.213c-.285.806-.717,2.059-1.2,3.6a119.269,119.269,0,0,0-5.05,40.434,157.151,157.151,0,0,0,2.6,24.394c.072.318.43,1.878.729,4.007a50.1,50.1,0,0,1,.47,5.591c.024.869.043,2.395-.067,4.284a50.133,50.133,0,0,1-.733,6.114c-.931,5.26-.8,19.112,1.4,33.992.513,3.465,1.318,8.2,2.6,13.8,1.366,7.25.513,11.153-.6,13.4a15.03,15.03,0,0,0-1.4,3.8,14.149,14.149,0,0,0-.035,4.8,2.483,2.483,0,0,0,2.38,2.135c9.385.318,30.428.981,30.575.325.222-.987-12.162-6.589-16.524-9.857-1.31-.982-3.316-5.372-3.6-7.6-2.98-23.55,6.883-33.9,12-64.985,1.5-9.137,1.46-13.163,4.05-21.838a111.292,111.292,0,0,1,7.093-17.567" transform="translate(43.015 45.735)" fill="none" stroke="#000" stroke-linecap="round" stroke-linejoin="round" stroke-width="1"></path><path id="Path_1951" data-name="Path 1951" d="M605.218,351.888c6.091,2.371,16.355,5.138,27.274,1.726a34.374,34.374,0,0,0,3.858-1.464,90.267,90.267,0,0,1-5.367-25.8q-.11-1.968-.133-3.866" transform="translate(55.915 60.287)" fill="#fff"></path><path id="Path_1952" data-name="Path 1952" d="M605.218,351.888c6.091,2.371,16.355,5.138,27.274,1.726a34.374,34.374,0,0,0,3.858-1.464,90.267,90.267,0,0,1-5.367-25.8q-.11-1.968-.133-3.866" transform="translate(55.915 60.287)" fill="none" stroke="#000" stroke-linecap="round" stroke-linejoin="round" stroke-width="1"></path><path id="Path_1953" data-name="Path 1953" d="M636.472,292.832l.857,1.133q0,2.291.008,4.588,0,4.333,0,8.652a63.921,63.921,0,0,1-49.588-1.2c.107-1.768.216-3.065.325-4.149.226-2.265.385-3.193.55-4.9.13-1.341-.008-3.676,0-6.027-.251,0-.387-.03-.406-.1q-.2-.645,13.8-5.615c4.81,1.017,8.213.622,13.5,1.916a125.179,125.179,0,0,0,14.814,4.431Q633.489,292.3,636.472,292.832Z" transform="translate(45.44 37.943)" fill="#1b53ee"></path><path id="Path_1954" data-name="Path 1954" d="M637.406,291.091q-.048,2.639-.069,5.32-.036,4.379,0,8.652a63.921,63.921,0,0,1-49.588-1.2c.107-1.768.216-3.065.325-4.149.246-2.46.421-3.361.55-4.9a36.491,36.491,0,0,0,0-6.027" transform="translate(45.44 40.083)" fill="none" stroke="#000" stroke-linecap="round" stroke-linejoin="round" stroke-width="1"></path><path id="Path_1955" data-name="Path 1955" d="M601.655,305.231a9.759,9.759,0,0,1-2.4,4.8c-3.82,4.077-9.828,2.892-10.263,2.8" transform="translate(46.185 49.943)" fill="#fff"></path><path id="Path_1956" data-name="Path 1956" d="M601.655,305.231a9.759,9.759,0,0,1-2.4,4.8c-3.82,4.077-9.828,2.892-10.263,2.8" transform="translate(46.185 49.943)" fill="none" stroke="#000" stroke-linecap="round" stroke-linejoin="round" stroke-width="1"></path><path id="Path_1957" data-name="Path 1957" d="M647.053,272.716a79.772,79.772,0,0,1,.877,11.193c-.038,7.928-.058,11.89-2.547,14.342-2.818,2.777-7.155,2.428-14.037,1.872-6.311-.512-10.1-1.8-16.687-3.487-4.145-1.061-10.255-2.492-17.9-3.8" transform="translate(50.844 30.446)" fill="none" stroke="#000" stroke-linecap="round" stroke-linejoin="round" stroke-width="1"></path><path id="Path_1958" data-name="Path 1958" d="M649.906,283.87a63.318,63.318,0,0,0-19.024.387,65.64,65.64,0,0,0-10.5,2.8c-23.942,8.145-31.1,14.68-35.865,11.349-2.433-1.7-3.2-5.951-4.679-14.505a66.887,66.887,0,0,1-.966-9.881" transform="translate(40.119 31.228)" fill="none" stroke="#000" stroke-linecap="round" stroke-linejoin="round" stroke-width="1"></path><path id="Path_1959" data-name="Path 1959" d="M639.658,294.289a31.99,31.99,0,0,1,18.113-5.138,73.3,73.3,0,0,0-1.537-7.688s-1.718-6.621-4.922-10.41c-.182-.216-.373-.433-.373-.433a3.412,3.412,0,0,0-.266-.3c-.606-.571-1.932-.993-11.431-5.779-10.671-5.376-11.887-6.3-13.1-7.955-3.582-4.879-2.164-9.327-5.615-10.761-2.388-.992-5.364.182-7.019,1.4-2.017,1.489-2.227,3.158-3.743,5.615-.488.792-1.9,2.945-7.486,7.019a56.837,56.837,0,0,1-7.6,4.764c-8.2,4.217-7.822,4.361-8.776,5.061-5.882,4.332-7.083,13.45-6.982,20.878,2.8.918,3.94.907,6.982,2.129,3.908,1.432,6.142,4.532,8.288,5.523a94.706,94.706,0,0,1,9.281-2.969c2.995-.869,7.517-1.067,12-1.488C626.512,292.72,634.246,292.609,639.658,294.289Z" transform="translate(40.141 14.096)" fill="#1b53ee"></path><path id="Path_1960" data-name="Path 1960" d="M639.658,294.289a31.99,31.99,0,0,1,18.113-5.138,73.3,73.3,0,0,0-1.537-7.688s-1.718-6.621-4.922-10.41c-.182-.216-.373-.433-.373-.433a3.412,3.412,0,0,0-.266-.3c-.606-.571-1.932-.993-11.431-5.779-10.671-5.376-11.887-6.3-13.1-7.955-3.582-4.879-2.164-9.327-5.615-10.761-2.388-.992-5.364.182-7.019,1.4-2.017,1.489-2.227,3.158-3.743,5.615-.488.792-1.9,2.945-7.486,7.019a56.837,56.837,0,0,1-7.6,4.764c-8.2,4.217-7.822,4.361-8.776,5.061-5.882,4.332-7.083,13.45-6.982,20.878,2.8.918,3.94.907,6.982,2.129,3.908,1.432,6.142,4.532,8.288,5.523a94.706,94.706,0,0,1,9.281-2.969c2.995-.869,7.517-1.067,12-1.488C626.512,292.72,634.246,292.609,639.658,294.289Z" transform="translate(40.141 14.096)" fill="none" stroke="#000" stroke-linecap="round" stroke-linejoin="round" stroke-width="1"></path><path id="Path_1961" data-name="Path 1961" d="M638.462,282.258a11.322,11.322,0,0,0-1.329-3.414s-.106-.179-.272-.432c0,0-.3-.456-.627-.867-2.435-3.059-16.183-2.24-16.183-2.24-.96.058-4.692.285-10.4.8-5.634.51-8.494.773-10.6,1.2a45.109,45.109,0,0,0-12.263,4.466" transform="translate(44.866 31.94)" fill="none" stroke="#000" stroke-linecap="round" stroke-linejoin="round" stroke-width="1"></path><path id="Path_1962" data-name="Path 1962" d="M626,239.73c-.034.672-.3,2.358-.4,5.4-.112,3.311.122,3.676,0,5-.1,1.12-.475,3.055-5.8,9.8-3.14,3.975-4.74,5.973-6.2,6.4-3.538,1.032-7.062-1.462-9.8-3.4-3.964-2.807-10.281-7.278-11.4-15.1-1.188-8.312,3.615-19.579,13.544-21.475C616.772,224.286,626.242,234.768,626,239.73Z" transform="translate(48.127 2.485)" fill="#fff"></path><path id="Path_1963" data-name="Path 1963" d="M626,239.73c-.034.672-.3,2.358-.4,5.4-.112,3.311.122,3.676,0,5-.1,1.12-.475,3.055-5.8,9.8-3.14,3.975-4.74,5.973-6.2,6.4-3.538,1.032-7.062-1.462-9.8-3.4-3.964-2.807-10.281-7.278-11.4-15.1-1.188-8.312,3.615-19.579,13.544-21.475C616.772,224.286,626.242,234.768,626,239.73Z" transform="translate(48.127 2.485)" fill="none" stroke="#000" stroke-linecap="round" stroke-linejoin="round" stroke-width="1"></path><path id="Path_1964" data-name="Path 1964" d="M618.37,223c-5.073.082-6.043.969-9.3.155-2.078-.518-2.176-1-3.278-1.166-6.155-.915-16.951,12.1-15.265,23.209.648,4.266,3.306,9.363,4.013,10.716.835,1.6,1.824,3.234,3.8,6.5.585.969,2.859,4.724,4.1,6.6,3.93,5.939,8.174,12.352,12.5,12.1,6-.354,9.857-13.592,11-19.4a42.962,42.962,0,0,0,.8-8.564c-1.883,4.748-3.735,5.907-5.1,6.066-1.814.21-2.718-1.357-5-1.1-2.449.277-3.1,2.273-4.8,2.7-1.8.451-4.754-.869-9.831-8.465a13.781,13.781,0,0,1,4.4-8.265,13.441,13.441,0,0,1,7.585-3.241c6.645-.521,9.008,4.831,12.543,3.631,5.6-1.9,7.462-17.636,3.067-20.118a4.207,4.207,0,0,0-1.532-.382A50.68,50.68,0,0,0,618.37,223Z" transform="translate(46.999 0)"></path><path id="Path_1965" data-name="Path 1965" d="M618.37,223c-5.073.082-6.043.969-9.3.155-2.078-.518-2.176-1-3.278-1.166-6.155-.915-16.951,12.1-15.265,23.209.648,4.266,3.306,9.363,4.013,10.716.835,1.6,1.824,3.234,3.8,6.5.585.969,2.859,4.724,4.1,6.6,3.93,5.939,8.174,12.352,12.5,12.1,6-.354,9.857-13.592,11-19.4a42.962,42.962,0,0,0,.8-8.564c-1.883,4.748-3.735,5.907-5.1,6.066-1.814.21-2.718-1.357-5-1.1-2.449.277-3.1,2.273-4.8,2.7-1.8.451-4.754-.869-9.831-8.465a13.781,13.781,0,0,1,4.4-8.265,13.441,13.441,0,0,1,7.585-3.241c6.645-.521,9.008,4.831,12.543,3.631,5.6-1.9,7.462-17.636,3.067-20.118a4.207,4.207,0,0,0-1.532-.382A50.68,50.68,0,0,0,618.37,223Z" transform="translate(46.999 0)" fill="none" stroke="#000" stroke-linecap="round" stroke-linejoin="round" stroke-width="1"></path><path id="Path_1966" data-name="Path 1966" d="M595.74,237.77q1.01-.024,1.766,1.686a12.521,12.521,0,0,1,.2,8.34q-.672,1.744-1.685,1.768t-1.766-1.686a12.536,12.536,0,0,1-.2-8.34Q594.728,237.793,595.74,237.77Z" transform="translate(48.848 9.492)" fill="#fff"></path><path id="Path_1967" data-name="Path 1967" d="M622.638,407.088a6.611,6.611,0,0,0-.7-1.8c-.52-1.1-1.524-2.582-4.567-4.266-2.985-1.654-3.569-1.086-6.674-2.667-2.126-1.081-3.374-1.716-4.565-3.065-3.066-3.471-1.7-7.075-3.982-8.532-2.571-1.643-7.553.867-8.43,4.133-.544,2.025.509,3.781-.117,4.265-1.179.913-5.4-5.088-6.731-4.132-.682.489.208,2.22-.176,6.066-.238,2.379-.686,2.8-.7,4.6a12,12,0,0,0,1.288,5.4C599.066,407.243,610.852,406.931,622.638,407.088Z" transform="translate(44.386 98.518)"></path><path id="Path_1968" data-name="Path 1968" d="M622.638,407.088a6.611,6.611,0,0,0-.7-1.8c-.52-1.1-1.524-2.582-4.567-4.266-2.985-1.654-3.569-1.086-6.674-2.667-2.126-1.081-3.374-1.716-4.565-3.065-3.066-3.471-1.7-7.075-3.982-8.532-2.571-1.643-7.553.867-8.43,4.133-.544,2.025.509,3.781-.117,4.265-1.179.913-5.4-5.088-6.731-4.132-.682.489.208,2.22-.176,6.066-.238,2.379-.686,2.8-.7,4.6a12,12,0,0,0,1.288,5.4C599.066,407.243,610.852,406.931,622.638,407.088Z" transform="translate(44.386 98.518)" fill="none" stroke="#000" stroke-miterlimit="10" stroke-width="1"></path><path id="Path_1969" data-name="Path 1969" d="M645.419,407.088a6.634,6.634,0,0,0-.7-1.8c-.52-1.1-1.523-2.582-4.565-4.266-2.987-1.654-3.569-1.086-6.674-2.667-2.128-1.081-3.374-1.716-4.567-3.065-3.065-3.471-1.7-7.075-3.98-8.532-2.571-1.643-7.553.867-8.43,4.133-.544,2.025.509,3.781-.117,4.265-1.179.913-5.4-5.088-6.733-4.132-.681.489.208,2.22-.174,6.066-.238,2.379-.686,2.8-.7,4.6a12,12,0,0,0,1.289,5.4C621.846,407.243,633.633,406.931,645.419,407.088Z" transform="translate(58.045 98.518)"></path><path id="Path_1970" data-name="Path 1970" d="M645.419,407.088a6.634,6.634,0,0,0-.7-1.8c-.52-1.1-1.523-2.582-4.565-4.266-2.987-1.654-3.569-1.086-6.674-2.667-2.128-1.081-3.374-1.716-4.567-3.065-3.065-3.471-1.7-7.075-3.98-8.532-2.571-1.643-7.553.867-8.43,4.133-.544,2.025.509,3.781-.117,4.265-1.179.913-5.4-5.088-6.733-4.132-.681.489.208,2.22-.174,6.066-.238,2.379-.686,2.8-.7,4.6a12,12,0,0,0,1.289,5.4C621.846,407.243,633.633,406.931,645.419,407.088Z" transform="translate(58.045 98.518)" fill="none" stroke="#000" stroke-miterlimit="10" stroke-width="1"></path><path id="Path_1971" data-name="Path 1971" d="M584.168,319.365l-1.2,31.793a36.575,36.575,0,0,0,11.8,5.6c7.072,1.878,13.629,1.227,18.7.723,1.726-.171,3.145-.374,4.093-.523a82.876,82.876,0,0,1,2.171-18.41c.424-1.811.9-3.545,1.4-5.2" transform="translate(42.573 58.418)" fill="#fff"></path><path id="Path_1972" data-name="Path 1972" d="M584.168,319.365l-1.2,31.793a36.575,36.575,0,0,0,11.8,5.6c7.072,1.878,13.629,1.227,18.7.723,1.726-.171,3.145-.374,4.093-.523a82.876,82.876,0,0,1,2.171-18.41c.424-1.811.9-3.545,1.4-5.2" transform="translate(42.573 58.418)" fill="none" stroke="#000" stroke-linecap="round" stroke-linejoin="round" stroke-width="1"></path><g id="Group_1386" data-name="Group 1386" transform="translate(639.763 244.319)"><circle id="Ellipse_83" data-name="Ellipse 83" cx="4.688" cy="4.688" r="4.688" transform="translate(13.788 0.885)" stroke-width="1" stroke="#0ac789" stroke-linecap="round" stroke-linejoin="round" fill="#fff"></circle><circle id="Ellipse_84" data-name="Ellipse 84" cx="4.688" cy="4.688" r="4.688" transform="translate(25.589 0.885)" stroke-width="1" stroke="#0ac789" stroke-linecap="round" stroke-linejoin="round" fill="#fff"></circle><line id="Line_780" data-name="Line 780" x2="2.425" transform="translate(23.164 5.573)" fill="#fff" stroke="#0ac789" stroke-linecap="round" stroke-linejoin="round" stroke-width="1"></line><line id="Line_781" data-name="Line 781" x2="13.869" y2="4.757" stroke-width="1" stroke="#0ac789" stroke-linecap="round" stroke-linejoin="round" fill="#fff"></line></g><line id="Line_782" data-name="Line 782" y2="4.666" transform="translate(634.457 462.477)" fill="none" stroke="#fff" stroke-linecap="round" stroke-miterlimit="10" stroke-width="1"></line><line id="Line_783" data-name="Line 783" y2="4.666" transform="translate(640.122 464.81)" fill="none" stroke="#fff" stroke-linecap="round" stroke-miterlimit="10" stroke-width="1"></line><line id="Line_784" data-name="Line 784" y2="4.666" transform="translate(637.256 471.808)" fill="none" stroke="#fff" stroke-linecap="round" stroke-miterlimit="10" stroke-width="1"></line><line id="Line_785" data-name="Line 785" y2="4.666" transform="translate(640.122 477.837)" fill="none" stroke="#fff" stroke-linecap="round" stroke-miterlimit="10" stroke-width="1"></line><line id="Line_786" data-name="Line 786" y2="4.666" transform="translate(671.381 461.441)" fill="none" stroke="#fff" stroke-linecap="round" stroke-miterlimit="10" stroke-width="1"></line><line id="Line_787" data-name="Line 787" y2="4.666" transform="translate(678.98 459.108)" fill="none" stroke="#fff" stroke-linecap="round" stroke-miterlimit="10" stroke-width="1"></line><line id="Line_788" data-name="Line 788" y2="4.666" transform="translate(676.047 467.143)" fill="none" stroke="#fff" stroke-linecap="round" stroke-miterlimit="10" stroke-width="1"></line><line id="Line_789" data-name="Line 789" y2="4.666" transform="translate(678.513 475.505)" fill="none" stroke="#fff" stroke-linecap="round" stroke-miterlimit="10" stroke-width="1"></line><line id="Line_790" data-name="Line 790" y2="4.666" transform="translate(675.38 477.932)" fill="none" stroke="#fff" stroke-linecap="round" stroke-miterlimit="10" stroke-width="1"></line></g><line id="Line_778" data-name="Line 778" x1="172.39" transform="translate(620.571 505.94)" fill="none" stroke="#000" stroke-linecap="round" stroke-linejoin="round" stroke-width="1"></line><line id="Line_779" data-name="Line 779" x1="94.547" transform="translate(511.969 505.94)" fill="none" stroke="#000" stroke-linecap="round" stroke-linejoin="round" stroke-width="1"></line></g></g></svg> 