<?xml version="1.0" encoding="UTF-8"?> <svg xmlns="http://www.w3.org/2000/svg" width="288.385" height="284.895" viewBox="0 0 288.385 284.895"><g id="Group_2037" data-name="Group 2037" transform="translate(5383 2639.395)"><g class="number"><g id="Group_1806" data-name="Group 1806" transform="translate(-5611 -3143)"><path id="Rectangle3_988" data-name="Rectangle 988" d="M0,0H94a20,20,0,0,1,20,20V95a0,0,0,0,1,0,0H20A20,20,0,0,1,0,75V0A0,0,0,0,1,0,0Z" transform="translate(228 684)" fill="#1b53ee"></path><text id="_1_" data-name="1" transform="translate(276.001 716)" fill="#fff" font-size="31" font-family="ProximaNova-Black, Proxima Nova" font-weight="800"><tspan x="0.514" y="24">1</tspan></text></g></g><g id="Group_1388" data-name="Group 1388" transform="translate(-5584.83 -2862.879)"><g class="block-1"><path id="Path_1977" data-name="Path 1977" d="M212.83,325.165V247.58a3.034,3.034,0,0,1,3.034-3.032H338.678a3.031,3.031,0,0,1,3.032,3.032v77.585a3.034,3.034,0,0,1-3.032,3.032H215.864a3.037,3.037,0,0,1-3.034-3.032Z" transform="translate(0 12.758)" fill="#fff"></path><path id="Path_1978" data-name="Path 1978" d="M212.83,325.165V247.58a3.034,3.034,0,0,1,3.034-3.032H338.678a3.031,3.031,0,0,1,3.032,3.032v77.585a3.034,3.034,0,0,1-3.032,3.032H215.864a3.037,3.037,0,0,1-3.034-3.032Z" transform="translate(0 12.758)" fill="none" stroke="#0ac789" stroke-linecap="round" stroke-linejoin="round" stroke-width="0.938"></path><path id="Path_1979" data-name="Path 1979" d="M222.794,265.01v-5.243a9.1,9.1,0,0,1,9.1-9.1h79.85a9.1,9.1,0,0,1,9.1,9.1v5.243a9.1,9.1,0,0,1-9.1,9.1h-79.85a9.1,9.1,0,0,1-9.1-9.1Z" transform="translate(6.151 16.535)" fill="#0ac789"></path><line id="Line_791" data-name="Line 791" x2="91.457" transform="translate(231.414 308.959)" fill="none" stroke="#1b53ee" stroke-miterlimit="10" stroke-width="1"></line><line id="Line_792" data-name="Line 792" x2="91.457" transform="translate(231.67 324.209)" fill="none" stroke="#1b53ee" stroke-miterlimit="10" stroke-width="1"></line></g><g class="block-2"><path id="Path_1975" data-name="Path 1975" d="M248.614,339.306V296.159a4.851,4.851,0,0,1,4.852-4.852h77.5a4.854,4.854,0,0,1,4.852,4.852v43.148a4.854,4.854,0,0,1-4.852,4.852h-77.5a4.851,4.851,0,0,1-4.852-4.852Z" transform="translate(22.089 41.622)" fill="#0ac789"></path><path id="Path_1976" data-name="Path 1976" d="M248.614,339.306V296.159a4.851,4.851,0,0,1,4.852-4.852h77.5a4.854,4.854,0,0,1,4.852,4.852v43.148a4.854,4.854,0,0,1-4.852,4.852h-77.5a4.851,4.851,0,0,1-4.852-4.852Z" transform="translate(22.089 41.622)" fill="#0ac789"></path><path id="Path_1990" data-name="Path 1990" d="M242.441,320.887v-13.5a3.236,3.236,0,0,1,3.235-3.235h13.5a3.236,3.236,0,0,1,3.235,3.235v13.5a3.236,3.236,0,0,1-3.235,3.235h-13.5a3.236,3.236,0,0,1-3.235-3.235Z" transform="translate(18.278 49.552)" fill="#1b53ee"></path><path id="Path_1991" data-name="Path 1991" d="M242.441,320.887v-13.5a3.236,3.236,0,0,1,3.235-3.235h13.5a3.236,3.236,0,0,1,3.235,3.235v13.5a3.236,3.236,0,0,1-3.235,3.235h-13.5a3.236,3.236,0,0,1-3.235-3.235Z" transform="translate(18.278 49.552)" fill="none" stroke="#1b53ee" stroke-linecap="round" stroke-linejoin="round" stroke-width="1"></path><path id="Path_1992" data-name="Path 1992" d="M259.441,320.887v-13.5a3.236,3.236,0,0,1,3.235-3.235h13.5a3.236,3.236,0,0,1,3.235,3.235v13.5a3.236,3.236,0,0,1-3.235,3.235h-13.5a3.236,3.236,0,0,1-3.235-3.235Z" transform="translate(28.772 49.552)" fill="#0ac789" stroke="#fff" stroke-miterlimit="10" stroke-width="1"></path><path id="Path_1993" data-name="Path 1993" d="M276.441,320.887v-13.5a3.236,3.236,0,0,1,3.235-3.235h13.5a3.236,3.236,0,0,1,3.235,3.235v13.5a3.236,3.236,0,0,1-3.235,3.235h-13.5a3.236,3.236,0,0,1-3.235-3.235Z" transform="translate(39.266 49.552)" fill="none" stroke="#fff" stroke-miterlimit="10" stroke-width="1"></path><path id="Path_2004" data-name="Path 2004" d="M268.691,309.451v-6.773a1.623,1.623,0,0,1,1.622-1.622h6.773a1.623,1.623,0,0,1,1.622,1.622v6.773a1.623,1.623,0,0,1-1.622,1.622h-6.773a1.623,1.623,0,0,1-1.622-1.622Z" transform="translate(34.482 47.64)" fill="#1b53ee"></path><path id="Path_2005" data-name="Path 2005" d="M280.324,322.5V315.73a1.623,1.623,0,0,1,1.624-1.622h6.772a1.623,1.623,0,0,1,1.624,1.622V322.5a1.623,1.623,0,0,1-1.624,1.622h-6.772a1.623,1.623,0,0,1-1.624-1.622Z" transform="translate(41.663 55.697)" fill="#1b53ee"></path></g><g class="block-3"><path id="Path_1973" data-name="Path 1973" d="M351.447,288.741v-13.5a3.233,3.233,0,0,1,3.235-3.235h13.5a3.236,3.236,0,0,1,3.235,3.235v13.5a3.236,3.236,0,0,1-3.235,3.235h-13.5a3.233,3.233,0,0,1-3.235-3.235Z" transform="translate(85.567 29.709)" fill="none" stroke="#0ac789" stroke-miterlimit="10" stroke-width="1"></path><path id="Path_1974" data-name="Path 1974" d="M338.874,367.76V266.387a3.236,3.236,0,0,1,3.235-3.235h54.166a3.236,3.236,0,0,1,3.235,3.235V367.76a3.233,3.233,0,0,1-3.235,3.235H342.109a3.233,3.233,0,0,1-3.235-3.235Z" transform="translate(77.805 24.242)" fill="none" stroke="#1b53ee" stroke-miterlimit="10" stroke-width="1"></path><path id="Path_1994" data-name="Path 1994" d="M351.447,288.741v-13.5a3.233,3.233,0,0,1,3.235-3.235h13.5a3.236,3.236,0,0,1,3.235,3.235v13.5a3.236,3.236,0,0,1-3.235,3.235h-13.5a3.233,3.233,0,0,1-3.235-3.235Z" transform="translate(85.567 29.709)" fill="#0ac789"></path><line id="Line_793" data-name="Line 793" x2="52.831" transform="translate(436.884 357.809)" fill="none" stroke="#0ac789" stroke-linecap="round" stroke-linejoin="round" stroke-width="1"></line><line id="Line_794" data-name="Line 794" x2="52.831" transform="translate(436.884 335.794)" fill="none" stroke="#0ac789" stroke-linecap="round" stroke-linejoin="round" stroke-width="1"></line><line id="Line_795" data-name="Line 795" x2="52.831" transform="translate(436.884 379.823)" fill="none" stroke="#0ac789" stroke-linecap="round" stroke-linejoin="round" stroke-width="1"></line><path id="Path_2003" data-name="Path 2003" d="M348.523,288.652v-6.773a1.623,1.623,0,0,1,1.622-1.622h6.773a1.623,1.623,0,0,1,1.622,1.622v6.773a1.623,1.623,0,0,1-1.622,1.622h-6.773a1.623,1.623,0,0,1-1.622-1.622Z" transform="translate(83.762 34.801)" fill="#1b53ee"></path></g><g class="human"><path id="Path_1980" data-name="Path 1980" d="M372.625,320.115c-.006-1.331.8-1.611,1.347-3.893a13.889,13.889,0,0,0,.37-2.981c.1-4.617,1.946-5.313,5.313-13.791,0,0,2.568-4.077,4.291-14.208,2.568-15.115-25.5-34.443-27.63-35.884l-7.925,1.986a5.867,5.867,0,0,1-1.213,3.235,5.421,5.421,0,0,1-2.848,1.975c-1.559.4-2.363-.293-4.834-.56a15.634,15.634,0,0,0-3.522.021,100.9,100.9,0,0,1-12.264,8.9c-4.959,3.055-10.831,6.671-17.858,8.693-12.052,3.466-23.239,1.108-37.8-2.224-5.224-1.2-15.544-3.954-15.769-3.235-.044.139.509.5,1.617,1.213,3.133,2.017,3.772,1.876,4.448,2.83.794,1.117.16,1.656.809,4.448a11.505,11.505,0,0,0,1.415,3.841c2.072,2.662,8.4.382,13.747-.4,7.765-1.142,7.54,1.742,19.205,2.426,11.434.67,20.8,1.219,29.313-2.628,2.4-1.088,5.795-2.5,7.682-1.011,1.308,1.03,1.26,3,1.3,4.427.272,10.365,5.806,21.334,6.671,23.046a15.511,15.511,0,0,1,2.031,6.912,14.389,14.389,0,0,1-.844,5.153c-.9,2.981-5.293,15.059-6.11,18.926-.108.513-.674,3.239-1.614,6.9-.451,1.753-.76,2.83-.76,2.83-1.1,3.805-2.054,6.217-3.083,9.851-.115.4-1.439,5.345-2.428,10.679-2.717,14.657-2.311,29.305-2.153,34.173a170.318,170.318,0,0,0,1.617,19c.791,5.379,1.6,8.94,2.83,14.556,1.394,6.388,3.358,15.583,5.66,27.09l9.3.2c.817-3.343,1.49-6.28,2.022-8.693a165.933,165.933,0,0,0,3.841-26.685,19.313,19.313,0,0,0-.809-8.086c-1.231-3.435-2.863-4.223-3.639-7.076-.54-1.981-.408-4,1.415-9.3,2.468-7.181,4.3-9.513,7.255-16.339,3.48-8.043,3.573-10.889,4.875-10.952,1.6-.076,4.1,4.1,7.884,24.461q6.569,15.97,13.14,31.941,3.738,10.31,7.48,20.62a12.38,12.38,0,0,0,4.448-.607,12.558,12.558,0,0,0,5.458-3.639,102.107,102.107,0,0,1-3.841-23.046c-.184-4.384-.66-8.754-.809-13.14-.146-4.253-.113-6.715-1.213-9.906a21.979,21.979,0,0,0-4.65-7.682,40.4,40.4,0,0,1-3.639-7.48c-1.108-3.037-2.6-8.282-2.246-22,.3-11.573,1.308-11.871.809-19.205a55.746,55.746,0,0,0-2.879-14.195c-1.59-4.569-2.384-6.852-3.568-8.281A5.1,5.1,0,0,1,372.625,320.115Z" transform="translate(24.35 15.728)" fill="#fff"></path><path id="Path_1981" data-name="Path 1981" d="M313.781,255.3c-2.319.249-3.857,1.3-5.931,2.7-4.113,2.774-8.74,5.859-14.017,9.434l6.2,10.917,4.312-.539q4.18,14.082,8.357,28.167.808,6.133,1.617,12.266a11.126,11.126,0,0,0,2.56,2.022c3.464,1.976,6.047.865,13.613.809,5.232-.04,5.893.475,9.7,0a37.53,37.53,0,0,0,6.739-1.483c.524-1.876,1.331-4.642,2.426-7.952,4.469-13.508,8.153-19.171,9.164-22.911,1.887-6.98-2.476-18.591-29.516-38.951l-5.525.674c-.354,3.32-1.449,4.591-2.426,5.122C319.092,256.633,317.19,254.93,313.781,255.3Z" transform="translate(50.002 15.981)" fill="#0ac789"></path><path id="Path_1982" data-name="Path 1982" d="M338.977,277.49a97,97,0,0,1-31.806,8.355c-5.471.438-8.206.653-11.052.27-3.843-.516-20.512-3.424-22.631-2.874l-.053.015c-.249.066-1.211.312-2.5.553-4.3.8-9.367,1.743-11.137-.509-1.011-1.287-.867-3.519-.763-5.119.118-1.811.553-2.289.136-3.084-.615-1.172-1.994-.961-4.667-2.242-1.27-.607-3.277-1.764-3.154-2.13.251-.752,9.506,1.884,15.471,3.272a130.524,130.524,0,0,0,31.7,3.246,44.076,44.076,0,0,0,8.754-1.5,41.907,41.907,0,0,0,8.454-3.445c15.44-8.023,19.867-14.979,26.258-13.553,1.185.265,3.1.966,4.76,0,1.682-.978,2.217-3.152,2.777-5.552,1.04-4.467,0-5.743,1.234-7.1,1.824-2,6.481-1.826,8.329.309,1.069,1.234.4,2.208,1.234,5.861.7,3.089,1.2,5.279,2.775,6.477,2.339,1.777,4.59-.5,10,0,1.931.178,6.508.915,9.722,4.027,2.372,2.3,3.5,5.4,4.027,9.723,2.368,19.412-10.708,36.028-12.34,46.71a5.993,5.993,0,0,1-1.027,2.677c-1.98,2.761-6.068,2.846-11.517,2.879-17.067.1-19.862-.487-20.978-2.673a5.31,5.31,0,0,1-.409-2.882c.194-4.771-.817-6.141-8.34-33.095-.254-.909-.737-2.639-1.349-4.852" transform="translate(23.773 12.853)" fill="none" stroke="#000" stroke-linecap="round" stroke-linejoin="round" stroke-width="1"></path><path id="Path_1983" data-name="Path 1983" d="M319.569,293.2a182.823,182.823,0,0,0-7.4,18.34q-1.735,5.08-3.06,9.857s-5.911,21.238-6.518,58.85a62.439,62.439,0,0,0,.5,9.4,61.571,61.571,0,0,0,2.1,9.783v0c4.546,16.943,7.055,28.676,7.406,40.539a16.448,16.448,0,0,1-.708,6.469c-1.085,3.081-3.463,6.285-10.658,10.569-9.322,5.551-15.746,6.377-15.563,7.472.259,1.557,13.019.026,24.2.558,1.816.086,3.838.008,7.883-.147,4.1-.157,5.086-.294,5.567-.647.021-.015.1-.082.191-.175.61-.6,1.538-1.891,1.422-4.794-.136-3.343-1.549-6.152-2.243-8.313-.907-2.819-.225-4.96-.026-10.936.146-4.363.532-7.634,3.235-23.451,2.67-15.631,3.2-17.776,2.022-21.833-1.566-5.374-3.894-6.392-4.36-11.311-.275-2.9.065-4.766,5.3-15.553,9.4-19.375,11.285-23.6,16.694-32.123,2.151-3.39,1.832-2.688,2.669-4.122,1.706-2.927,10.574-18.14,5.922-34.388a33.939,33.939,0,0,0-1.617-4.448" transform="translate(44.958 42.542)" fill="none" stroke="#000" stroke-linecap="round" stroke-linejoin="round" stroke-width="1"></path><path id="Path_1984" data-name="Path 1984" d="M318.69,346.535A292.284,292.284,0,0,0,327.8,380.1c3.736,11.078,8.641,19.526,14.353,35.875,2.387,6.833,1.663,5.507,4.566,13.923,1.808,5.243,3.131,10.645,4.525,16.013,1.423,5.483.771,7.663-.411,9.46a14.772,14.772,0,0,1-6.668,5.083,7.714,7.714,0,0,0-2.224.909,7.57,7.57,0,0,0-1.315,1.011c1.431-.021,4.493-.063,8.491-.1,5.746-.055,6.956-.039,8.188-1.011,1.742-1.376,1.108-2.817,2.987-8.36a32.05,32.05,0,0,1,3.841-8.565c2.555-3.738,4.753-4.6,4.593-7.032a6.257,6.257,0,0,0-2.167-3.885,9.129,9.129,0,0,0-3.639-1.617c-1.743-.657-4.006-2.353-6.33-8.515-3.315-8.792-4.263-20.059-4.587-23.831-1.2-13.949-1.829-21.015-3.235-25.472-3.146-9.967-5.678-8.607-8.219-16.918-2.169-7.089-.094-28.112,0-35.784.074-6.252-1.062-15.245-6.894-26.3" transform="translate(65.346 43.892)" fill="none" stroke="#000" stroke-linecap="round" stroke-linejoin="round" stroke-width="1"></path><path id="Path_1985" data-name="Path 1985" d="M302.537,380.832a15.63,15.63,0,0,0,6.065,1.213,15.445,15.445,0,0,0,3.684-.461" transform="translate(55.375 96.885)" fill="none" stroke="#000" stroke-linecap="round" stroke-linejoin="round" stroke-width="1"></path><path id="Path_1986" data-name="Path 1986" d="M335.379,377.785a15.625,15.625,0,0,0,5.838-2.044,29.128,29.128,0,0,0,4.016-3.354" transform="translate(75.648 91.671)" fill="none" stroke="#000" stroke-linecap="round" stroke-linejoin="round" stroke-width="1"></path><path id="Path_1987" data-name="Path 1987" d="M293.778,260.558c.517,1.177,1.1,2.394,1.753,3.639a58.9,58.9,0,0,0,5.12,8.086" transform="translate(49.968 22.641)" fill="none" stroke="#000" stroke-linecap="round" stroke-linejoin="round" stroke-width="1"></path><path id="Path_1988" data-name="Path 1988" d="M310.72,390.5a26.536,26.536,0,0,0,12.668-3.1,25.977,25.977,0,0,0,.338,4.986c.459,2.753,1.777,7.829,1.84,9.453,0,.065.045,1.261.045,1.261a5.5,5.5,0,0,1-.943,2.426c-1.307,1.774-5.263,1.329-5.931,1.315-5.793-.138-7.124-.06-13.047-.013-18.418.141-9.765-.1-13.335.013-3.763.115-6.578.319-6.975-.776-.226-.626.427-1.431.742-1.819.935-1.15,2.222-1.493,4.043-1.954,2.814-.712,4.223-1.067,4.65-1.145,4.583-.846,7.939-3.681,11.691-6.739A44.721,44.721,0,0,0,310.72,390.5Z" transform="translate(44.757 100.941)" fill="#1b53ee"></path><path id="Path_1989" data-name="Path 1989" d="M310.72,390.5a26.536,26.536,0,0,0,12.668-3.1,25.977,25.977,0,0,0,.338,4.986c.459,2.753,1.777,7.829,1.84,9.453,0,.065.045,1.261.045,1.261a5.5,5.5,0,0,1-.943,2.426c-1.307,1.774-5.263,1.329-5.931,1.315-5.793-.138-7.124-.06-13.047-.013-18.418.141-9.765-.1-13.335.013-3.763.115-6.578.319-6.975-.776-.226-.626.427-1.431.742-1.819.935-1.15,2.222-1.493,4.043-1.954,2.814-.712,4.223-1.067,4.65-1.145,4.583-.846,7.939-3.681,11.691-6.739A44.721,44.721,0,0,0,310.72,390.5Z" transform="translate(44.757 100.941)" fill="none" stroke="#1b53ee" stroke-linecap="round" stroke-linejoin="round" stroke-width="1"></path><path id="Path_1995" data-name="Path 1995" d="M351.164,377.111a20.493,20.493,0,0,1-10.444,8.423,27.157,27.157,0,0,1,.809,2.83,28.81,28.81,0,0,1,.472,9.5c-.364,3.306-.545,4.959-1.415,6.133a16.184,16.184,0,0,1-6.335,4.718c-.6.236-2.013.744-2.426,1.954a2.4,2.4,0,0,0-.068,1.213l16.275-.4a7.97,7.97,0,0,0,2.931-2.224c1.9-2.36.987-4.308,2.224-8.9.949-3.511,1.523-5.639,3.437-7.278a11.464,11.464,0,0,0,3.134-3.235,5.957,5.957,0,0,0,.909-2.628,5.5,5.5,0,0,0-1.011-3.437c-1.773-2.452-4.341-1.753-6.873-4.346A8.8,8.8,0,0,1,351.164,377.111Z" transform="translate(73.383 94.588)" fill="#1b53ee"></path><path id="Path_1996" data-name="Path 1996" d="M351.164,377.111a20.493,20.493,0,0,1-10.444,8.423,27.157,27.157,0,0,1,.809,2.83,28.81,28.81,0,0,1,.472,9.5c-.364,3.306-.545,4.959-1.415,6.133a16.184,16.184,0,0,1-6.335,4.718c-.6.236-2.013.744-2.426,1.954a2.4,2.4,0,0,0-.068,1.213l16.275-.4a7.97,7.97,0,0,0,2.931-2.224c1.9-2.36.987-4.308,2.224-8.9.949-3.511,1.523-5.639,3.437-7.278a11.464,11.464,0,0,0,3.134-3.235,5.957,5.957,0,0,0,.909-2.628,5.5,5.5,0,0,0-1.011-3.437c-1.773-2.452-4.341-1.753-6.873-4.346A8.8,8.8,0,0,1,351.164,377.111Z" transform="translate(73.383 94.588)" fill="none" stroke="#1b53ee" stroke-linecap="round" stroke-linejoin="round" stroke-width="1"></path><path id="Path_1997" data-name="Path 1997" d="M336.977,386.1a15.639,15.639,0,0,0,6.141-.734" transform="translate(76.634 99.686)" fill="none" stroke="#000" stroke-linecap="round" stroke-linejoin="round" stroke-width="1"></path><path id="Path_1998" data-name="Path 1998" d="M336.977,388.213a15.616,15.616,0,0,0,6.141-.736" transform="translate(76.634 100.987)" fill="none" stroke="#000" stroke-linecap="round" stroke-linejoin="round" stroke-width="1"></path><path id="Path_1999" data-name="Path 1999" d="M337.379,390.186a15.64,15.64,0,0,0,6.141-.734" transform="translate(76.883 102.206)" fill="none" stroke="#000" stroke-linecap="round" stroke-linejoin="round" stroke-width="1"></path><path id="Path_2000" data-name="Path 2000" d="M298,391.087a15.647,15.647,0,0,0,3.584,5.041" transform="translate(52.576 103.215)" fill="none" stroke="#000" stroke-linecap="round" stroke-linejoin="round" stroke-width="1"></path><path id="Path_2001" data-name="Path 2001" d="M296.15,392.1a15.664,15.664,0,0,0,3.584,5.041" transform="translate(51.432 103.838)" fill="none" stroke="#000" stroke-linecap="round" stroke-linejoin="round" stroke-width="1"></path><path id="Path_2002" data-name="Path 2002" d="M294.609,393.393a15.63,15.63,0,0,0,3.584,5.041" transform="translate(50.481 104.639)" fill="none" stroke="#000" stroke-linecap="round" stroke-linejoin="round" stroke-width="1"></path><path id="Path_2006" data-name="Path 2006" d="M334.515,247.5c-1.164,8.473-8.7,15.528-18.463,16.642a28.246,28.246,0,0,1-4.718-4.716c-2.812-3.573-6.134-7.794-5.256-12,.3-1.426,1.163-3.249.809-6.065a11.477,11.477,0,0,0-.4-1.887c2.725-7.753,9.416-12.592,15.607-12.05C330.688,228.176,335.673,239.075,334.515,247.5Z" transform="translate(57.472 2.162)" fill="#fff"></path><path id="Path_2007" data-name="Path 2007" d="M334.515,247.5c-1.164,8.473-8.7,15.528-18.463,16.642a28.246,28.246,0,0,1-4.718-4.716c-2.812-3.573-6.134-7.794-5.256-12,.3-1.426,1.163-3.249.809-6.065a11.477,11.477,0,0,0-.4-1.887c2.725-7.753,9.416-12.592,15.607-12.05C330.688,228.176,335.673,239.075,334.515,247.5Z" transform="translate(57.472 2.162)" fill="none" stroke="#000" stroke-linecap="round" stroke-linejoin="round" stroke-width="1"></path><path id="Path_2008" data-name="Path 2008" d="M308.014,236.785c2.838,3.653,3.935,4.9,4.939,7.218a11.649,11.649,0,0,1,.856,2.486c.252,1.426-.037,1.976.068,4.043.071,1.422.3,2.932.5,2.932.3,0,.1-3.1.911-3.336,1.182-.34,3.886,5.6,4.177,6.335,4.49,11.366,6.733,17.051,5.661,23.585-1.312,7.993-5.893,10.787-4.313,17.386a14.916,14.916,0,0,0,2.694,5.554c.464-1.4,2.4-6.718,6.741-7.844,2.887-.749,5.517.7,9.972,3.235,6.878,3.912,6.8,6.052,10.108,6.738,5.5,1.142,12.891-3.293,15.5-9.164,2.6-5.845-1.1-9.62,1.7-16.436a19.493,19.493,0,0,1,6.519-8.093c-.961-13.87-5.5-19.8-9.57-22.642-4.941-3.451-8.213-1.654-14.42-6.065-7.8-5.542-5.816-10.592-12.67-14.017-5.3-2.647-6.578.332-16.846-2.694-4.915-1.449-6.893-2.8-9.7-1.753-3.5,1.305-6.26,5.57-5.526,8.761C305.416,233.435,306.284,234.558,308.014,236.785Z" transform="translate(57.019 0)" stroke="#000" stroke-linecap="round" stroke-linejoin="round" stroke-width="1"></path><path id="Path_2009" data-name="Path 2009" d="M311.188,244.244a11.006,11.006,0,0,1,1.2-4.106q.919-1.652,1.934-1.535t1.533,1.936a12.664,12.664,0,0,1-.97,8.379q-.919,1.652-1.934,1.533t-1.533-1.936A11.021,11.021,0,0,1,311.188,244.244Z" transform="translate(60.653 9.084)" fill="#fff"></path><path id="Path_2010" data-name="Path 2010" d="M307,228.269a33.574,33.574,0,0,0,5.122,8.222c4.755,5.6,8.093,5.821,11.994,10.377.679.794,5.69,6.8,5.931,14.826.167,5.531-1.96,11.146-4.986,19.137a17.688,17.688,0,0,0-1.483,9.435,15.3,15.3,0,0,0,2.056,5.559,6.324,6.324,0,0,1,3.268-2.492,6.092,6.092,0,0,1,2.29-.236c.548.032,1.629.162,5.054,1.886.823.414,1.486.773,1.921,1.011a21.056,21.056,0,0,1-3.668-11.7,44.991,44.991,0,0,1,1.478-9.123c2.466-10.993,2.926-10.834,2.964-13.611.036-2.52.11-7.787-3.235-12-1.087-1.367-3.241-2.709-7.548-5.39-4.2-2.615-4.892-2.693-9.164-5.392a50.621,50.621,0,0,1-7.144-5.12A35.87,35.87,0,0,1,307,228.269Z" transform="translate(58.13 2.71)" fill="#1b53ee"></path></g><line id="Line_796" data-name="Line 796" x1="101.511" transform="translate(275.894 507.879)" fill="none" stroke="#000" stroke-linecap="round" stroke-linejoin="round" stroke-width="1"></line><line id="Line_797" data-name="Line 797" x1="95.591" transform="translate(392.732 507.879)" fill="none" stroke="#000" stroke-linecap="round" stroke-linejoin="round" stroke-width="1"></line></g></g></svg> 