<?xml version="1.0" encoding="UTF-8"?> <svg xmlns="http://www.w3.org/2000/svg" width="284.552" height="285.119" viewBox="0 0 284.552 285.119"><g id="Group_2039" data-name="Group 2039" transform="translate(4600.314 2665.618)"><g class="number"><g id="Group_1808" data-name="Group 1808" transform="translate(-4669 -3313)"><path id="uRectangle_988" data-name="Rectangle 988" d="M0,0H94a20,20,0,0,1,20,20V95a0,0,0,0,1,0,0H20A20,20,0,0,1,0,75V0A0,0,0,0,1,0,0Z" transform="translate(228 684)" fill="#1b53ee"></path><text id="_3" data-name="3" transform="translate(276.001 716)" fill="#fff" font-size="31" font-family="ProximaNova-Black, Proxima Nova" font-weight="800"><tspan x="-1.564" y="24">3</tspan></text></g></g><g id="Group_1383" data-name="Group 1383" transform="translate(-5413.83 -2889.932)"><g class="bin"><path id="Path_1888" data-name="Path 1888" d="M959.067,332.165V322a1.438,1.438,0,0,1,1.627-1.627h20.278A1.438,1.438,0,0,1,982.6,322v10.161Z" transform="translate(90.941 59.848)" fill="none"></path><path id="Path_1889" data-name="Path 1889" d="M959.067,332.165V322a1.438,1.438,0,0,1,1.627-1.627h20.278A1.438,1.438,0,0,1,982.6,322v10.161Z" transform="translate(90.941 59.848)" fill="none" stroke="#000" stroke-linecap="round" stroke-linejoin="round" stroke-width="1"></path><path id="Path_1890" data-name="Path 1890" d="M1000.306,441.056H956.539A3.254,3.254,0,0,1,953.289,438L946.965,333.18h62.913L1003.553,438A3.251,3.251,0,0,1,1000.306,441.056Z" transform="translate(83.352 67.876)" fill="#fff"></path><path id="Path_1891" data-name="Path 1891" d="M1000.306,441.056H956.539A3.254,3.254,0,0,1,953.289,438L946.965,333.18h62.913L1003.553,438A3.251,3.251,0,0,1,1000.306,441.056Z" transform="translate(83.352 67.876)" fill="none" stroke="#000" stroke-linecap="round" stroke-linejoin="round" stroke-width="1"></path><rect id="Rectangle_828" data-name="Rectangle 828" width="71.59" height="9.042" rx="1" transform="translate(1025.979 392.013)" fill="#1b53ee"></rect><rect id="Rectangle_829" data-name="Rectangle 829" width="71.59" height="9.042" rx="1" transform="translate(1025.979 392.013)" stroke-width="1" stroke="#1b53ee" stroke-linecap="round" stroke-linejoin="round" fill="none"></rect><path id="Path_1892" data-name="Path 1892" d="M962.649,357.632l-3.806,1.266-1.265-3.806" transform="translate(90.007 81.615)" fill="none" stroke="#0ac789" stroke-linecap="round" stroke-linejoin="round" stroke-width="1"></path><path id="Path_1893" data-name="Path 1893" d="M958.355,360.519a13.753,13.753,0,0,1,26.191,4.461" transform="translate(90.495 79.994)" fill="none" stroke="#0ac789" stroke-linecap="round" stroke-linejoin="round" stroke-width="1"></path><path id="Path_1894" data-name="Path 1894" d="M971.9,365.189l3.806-1.266,1.265,3.806" transform="translate(98.99 87.154)" fill="none" stroke="#0ac789" stroke-linecap="round" stroke-linejoin="round" stroke-width="1"></path><path id="Path_1895" data-name="Path 1895" d="M984.335,365.643a13.752,13.752,0,0,1-26.189-4.461" transform="translate(90.363 85.434)" fill="none" stroke="#0ac789" stroke-linecap="round" stroke-linejoin="round" stroke-width="1"></path></g><g class="human"><path id="Path_1887" data-name="Path 1887" d="M959.618,429.964a10.558,10.558,0,0,0-4.881-3.8c-4.935-2.358-7.179-8.363-10.034-16-2.569-6.879-3.077-14.565-3.8-22.507a24.737,24.737,0,0,0-1.627-7.865,24.148,24.148,0,0,0-7.593-9.762c.918-12.112,1.731-21.786,2.289-28.2.631-7.253,1.484-12.156.965-19.253a73.466,73.466,0,0,0-3.3-16.973l-.784.49.049-.246c-1.7.309-4.128.714-7.05,1.085-9.795,1.245-17.034,1.072-26.3.814-6.223-.174-10.926-.361-17.108-1.8-1.621-.378-2.948-.75-3.85-1.017-1.225,14.87-1.819,27.453-2.128,36.9-1.542,46.994,1.814,80.259,2.942,90.548.423,3.889.814,7.091,1.084,9.219a7.575,7.575,0,0,1-1.084,2.712,8.106,8.106,0,0,1-3.119,2.712c-4.561,2.4-12.577,3.965-19.347,6.668-3.524,1.407-5.385,2.117-5.288,2.847.181,1.373,8.391,2.1,39.27.168a2.681,2.681,0,0,0,2.524-2.753c-.075-2.52-.089-5.813.1-9.617.6-11.912,2.631-16.993,6.915-40.269,2.055-11.178,2.424-14.552,2.441-18.711.028-7.468-1.11-9.072-.407-14.643a14.351,14.351,0,0,1,.714-3.788,11.91,11.91,0,0,1,1.728-3.127c-.482-1.9-1.254-4.782-2.361-8.273.342.992.745,2.172,1.547,4.478,3.126,8.975,6.232,17.618,7.052,19.795,3.876,10.309,7.263,10.826,23.862,36.608,4.9,7.608,8.524,13.672,8.407,21.7-.036,2.475-.117,8.036-3.8,12.473-3.713,4.478-8.983,3.908-8.679,6.508.106.9,3.7-.192,10.847,0,4.914.133,7.084.739,8.677-.814,1.193-1.158.672-2.174,1.627-5.151,1.139-3.549,3.1-5.921,5.153-8.407,3.472-4.2,5.236-4.426,5.695-7.05A8.363,8.363,0,0,0,959.618,429.964Zm-68.38-99.139.2-.081-.169.106a79.784,79.784,0,0,0,2.681,8.086c-.376-.861-.757-1.811-1.188-3.041C892.009,333.757,891.525,331.972,891.238,330.825Z" transform="translate(22.332 50.16)" fill="#fff"></path><path id="Path_1896" data-name="Path 1896" d="M897.131,428.1H818.392c-2.849,0-4.928-2.009-4.216-4.071l38.307-121.408h10.555l38.307,121.408C902.061,426.095,899.98,428.1,897.131,428.1Z" transform="translate(0 48.717)" fill="none" stroke="#0ac789" stroke-linecap="round" stroke-linejoin="round" stroke-width="1"></path><path id="Path_1897" data-name="Path 1897" d="M851.881,335.825H836.517a.817.817,0,0,1-.822-1.012l7.475-30.188h2.058l7.475,30.188A.818.818,0,0,1,851.881,335.825Z" transform="translate(13.564 49.971)" fill="none" stroke="#0ac789" stroke-linecap="round" stroke-linejoin="round" stroke-width="1"></path><line id="Line_762" data-name="Line 762" x1="4.744" y2="22.286" transform="translate(844.514 384.784)" fill="none" stroke="#0ac789" stroke-linecap="round" stroke-linejoin="round" stroke-width="1"></line><line id="Line_763" data-name="Line 763" x2="4.744" y2="22.286" transform="translate(866.294 385.797)" fill="none" stroke="#0ac789" stroke-linecap="round" stroke-linejoin="round" stroke-width="1"></line><line id="Line_764" data-name="Line 764" x1="1.525" y2="23.185" transform="translate(851.847 392.084)" fill="none" stroke="#0ac789" stroke-linecap="round" stroke-linejoin="round" stroke-width="1"></line><line id="Line_765" data-name="Line 765" x2="1.525" y2="23.185" transform="translate(862.152 392.084)" fill="none" stroke="#0ac789" stroke-linecap="round" stroke-linejoin="round" stroke-width="1"></line><line id="Line_766" data-name="Line 766" y2="21.355" transform="translate(857.762 401.275)" fill="none" stroke="#0ac789" stroke-linecap="round" stroke-linejoin="round" stroke-width="1"></line><path id="Path_1898" data-name="Path 1898" d="M870.856,364.928c-1.952.086-3.428,3.337-4.068,4.746a15.475,15.475,0,0,0-1.22,7.728c.119,1.57,1.43,19.017,5.695,19.253,3.134.174,7.279-8.981,6.78-17.354C877.623,372.285,873.883,364.8,870.856,364.928Z" transform="translate(32.272 87.782)" fill="#fff"></path><path id="Path_1899" data-name="Path 1899" d="M915.6,305.344a73.368,73.368,0,0,1,3.3,16.973c.519,7.1-.333,12-.965,19.253-.558,6.415-1.372,16.09-2.289,28.2a24.161,24.161,0,0,1,7.593,9.762,24.737,24.737,0,0,1,1.627,7.865c.719,7.942,1.225,15.628,3.8,22.507,2.854,7.636,5.1,13.641,10.034,16a10.558,10.558,0,0,1,4.881,3.8,8.363,8.363,0,0,1,1.355,5.695c-.46,2.624-2.223,2.849-5.695,7.05-2.053,2.486-4.014,4.858-5.153,8.407-.955,2.977-.434,3.993-1.627,5.151-1.593,1.552-3.765.947-8.677.814-7.144-.192-10.742.9-10.847,0-.3-2.6,4.966-2.031,8.679-6.508,3.679-4.437,3.76-10,3.8-12.473.117-8.023-3.51-14.087-8.407-21.7-16.6-25.782-19.987-26.3-23.862-36.608-.82-2.177-3.926-10.82-7.052-19.795-1.459-4.2-1.608-4.681-2.441-7.052-2.125-6.048-6.027-13.156-8.422-22.1" transform="translate(38.37 50.422)" fill="none" stroke="#000" stroke-linecap="round" stroke-linejoin="round" stroke-width="1"></path><path id="Path_1900" data-name="Path 1900" d="M876.593,304.927c-1.225,14.871-1.817,27.455-2.127,36.9-1.542,46.994,1.814,80.259,2.94,90.548.425,3.889.815,7.091,1.085,9.219a7.554,7.554,0,0,1-1.085,2.712,8.1,8.1,0,0,1-3.119,2.712c-4.559,2.4-12.575,3.965-19.345,6.668-3.524,1.407-5.385,2.117-5.288,2.847.181,1.373,8.389,2.1,39.27.168a2.682,2.682,0,0,0,2.524-2.753c-.075-2.52-.089-5.813.1-9.617.6-11.912,2.631-16.993,6.915-40.269,2.055-11.178,2.423-14.552,2.441-18.711.028-7.468-1.11-9.072-.407-14.643a14.351,14.351,0,0,1,.714-3.788,11.91,11.91,0,0,1,1.728-3.127c-.556-2.19-1.5-5.688-2.891-9.922-4.263-12.937-6.534-13.869-8.814-23.05" transform="translate(22.332 50.16)" fill="none" stroke="#000" stroke-linecap="round" stroke-linejoin="round" stroke-width="1"></path><path id="Path_1901" data-name="Path 1901" d="M880.375,391.734a23.886,23.886,0,0,1-12.915-3.14" transform="translate(33.5 102.623)" fill="#fff"></path><path id="Path_1902" data-name="Path 1902" d="M880.375,391.734a23.886,23.886,0,0,1-12.915-3.14" transform="translate(33.5 102.623)" fill="none" stroke="#000" stroke-linecap="round" stroke-linejoin="round" stroke-width="1"></path><path id="Path_1903" data-name="Path 1903" d="M903.378,407.756c-1.752.753-3.721.752-4.793,2.395a4.01,4.01,0,0,0-.61,1.9,52.741,52.741,0,0,1,9.762-.2c1.487.115,3.03.1,6.114.08,2.677-.021,3.425-.1,4.123-.622,1.477-1.1,1-2.9,1.674-5.581.716-2.846,2.45-4.873,5.917-8.928,3.57-4.172,4.67-4.168,5.153-6.3a8.81,8.81,0,0,0-2.575-8.067,28.471,28.471,0,0,0-2.916-1.83c-1.834-1.155-3.274-2.172-4.2-2.847-1.985,1.3-4.172,2.628-6.562,3.926-1.933,1.049-3.8,1.977-5.594,2.8a28.553,28.553,0,0,1,1.24,7.445c.1,3.057.215,6.616-1.83,10.372C907.124,404.412,905.892,406.677,903.378,407.756Z" transform="translate(52.634 95.82)" fill="#1b53ee" stroke="#1b53ee" stroke-linecap="round" stroke-linejoin="round" stroke-width="1"></path><path id="Path_1904" data-name="Path 1904" d="M848.859,403.02c.691-2,3.415-2.73,4.678-3.051,11.3-2.87,20.385-2.655,24.018-7.672a8.572,8.572,0,0,0,1.505-3.921l13.22,3.864a56.429,56.429,0,0,1,1.627,8.542,4.351,4.351,0,0,1-1.017,2.746,4.147,4.147,0,0,1-2.948,1.22q-20.491.354-40.982.711A3.749,3.749,0,0,1,848.859,403.02Z" transform="translate(21.733 102.487)" fill="#1b53ee" stroke="#1b53ee" stroke-linecap="round" stroke-linejoin="round" stroke-width="1"></path><path id="Path_1905" data-name="Path 1905" d="M984.226,442.491H905.487c-2.849,0-4.93-2.011-4.216-4.071L939.58,317.012h10.553L988.442,438.42C989.156,440.48,987.075,442.491,984.226,442.491Z" transform="translate(54.612 57.738)" fill="#0ac789"></path><path id="Path_1906" data-name="Path 1906" d="M938.968,350.087H923.6a.818.818,0,0,1-.822-1.012l7.475-30.188h2.06l7.475,30.188A.818.818,0,0,1,938.968,350.087Z" transform="translate(68.17 58.914)" fill="#fff"></path><path id="Path_1907" data-name="Path 1907" d="M938.968,350.087H923.6a.818.818,0,0,1-.822-1.012l7.475-30.188h2.06l7.475,30.188A.818.818,0,0,1,938.968,350.087Z" transform="translate(68.17 58.914)" fill="none" stroke="#fff" stroke-linecap="round" stroke-linejoin="round" stroke-width="1"></path><line id="Line_767" data-name="Line 767" x1="4.744" y2="22.287" transform="translate(986.207 407.988)" fill="none" stroke="#fff" stroke-linecap="round" stroke-linejoin="round" stroke-width="1"></line><line id="Line_768" data-name="Line 768" x2="4.744" y2="22.287" transform="translate(1007.988 409.001)" fill="none" stroke="#fff" stroke-linecap="round" stroke-linejoin="round" stroke-width="1"></line><line id="Line_769" data-name="Line 769" x1="1.525" y2="23.185" transform="translate(993.54 415.289)" fill="none" stroke="#fff" stroke-linecap="round" stroke-linejoin="round" stroke-width="1"></line><line id="Line_770" data-name="Line 770" x2="1.525" y2="23.185" transform="translate(1003.847 415.289)" fill="none" stroke="#fff" stroke-linecap="round" stroke-linejoin="round" stroke-width="1"></line><path id="Path_1908" data-name="Path 1908" d="M899.238,286.874c3.14,6.586,6.5,10.224,14.056,19.411,9.214,11.2,18.016,15.149,20.838,23.125,1.534,4.343,2.144,6.772,2.144,6.772,1.307,5.215,1.7,9.876,2.441,9.863.491-.008.377-2.086,1.525-2.542s2.385,1.214,4.474,2.542c3.822,2.429,9.128,2.81,10.271,1.119.36-.534.2-1.11-.306-2.95-2.351-8.6-2.486-9.508-3.661-10.677-1.686-1.676-3.463-1.855-5.185-2.441-5.659-1.923-9.152-7.31-12.2-14.44-4.046-9.451-9.364-20.945-17.04-36.381" transform="translate(53.426 34.703)" fill="#fff"></path><line id="Line_771" data-name="Line 771" y2="21.355" transform="translate(999.456 424.479)" fill="none" stroke="#fff" stroke-linecap="round" stroke-linejoin="round" stroke-width="1"></line><path id="Path_1909" data-name="Path 1909" d="M871.271,274.8a83.316,83.316,0,0,1-7.346,16.209c-2.6,4.408-4.857,8.664-9.276,13a96.616,96.616,0,0,1-7.9,6.822c-4.609,3.514-6.235,4.011-8.044,6.62-2.31,3.329-3.692,8.466-2.136,9.66.84.644,1.985-.277,7.831-2.237,5.267-1.767,6.677-1.8,7.322-1.118,1.005,1.069-.221,3.5.2,3.661.4.148,1.866-1.819,2.541-4.373.862-3.264-.33-4.642-.1-7.016.3-3.161,2.877-4.818,9.559-10.169,6.624-5.307,9.948-7.969,10.372-8.339a63.916,63.916,0,0,0,11.593-13.423" transform="translate(13.715 31.269)" fill="#fff"></path><path id="Path_1910" data-name="Path 1910" d="M871.271,274.8a83.316,83.316,0,0,1-7.346,16.209c-2.6,4.408-4.857,8.664-9.276,13a96.616,96.616,0,0,1-7.9,6.822c-4.609,3.514-6.235,4.011-8.044,6.62-2.31,3.329-3.692,8.466-2.136,9.66.84.644,1.985-.277,7.831-2.237,5.267-1.767,6.677-1.8,7.322-1.118,1.005,1.069-.221,3.5.2,3.661.4.148,1.866-1.819,2.541-4.373.862-3.264-.33-4.642-.1-7.016.3-3.161,2.877-4.818,9.559-10.169,6.624-5.307,9.948-7.969,10.372-8.339a63.916,63.916,0,0,0,11.593-13.423" transform="translate(13.715 31.269)" fill="none" stroke="#000" stroke-linecap="round" stroke-linejoin="round" stroke-width="1"></path><path id="Path_1911" data-name="Path 1911" d="M942.674,301.552c-1.406-7.065-2.986-13.456-4.575-19.17,0,0-2.268-8.156-6.341-11.389l-.727-.578c-.726-.553-2.223-1.5-8.2-4.57A57.81,57.81,0,0,1,915.1,261c-5.68-4.144-7.118-6.334-7.613-7.139-1.544-2.5-1.755-4.2-3.81-5.711-1.681-1.241-4.709-2.436-7.138-1.427-3.51,1.458-2.068,5.983-5.711,10.945-1.235,1.684-2.473,2.623-13.324,8.091-9.661,4.868-11.012,5.3-11.63,5.879a3.641,3.641,0,0,0-.268.307s-.194.223-.379.443c-3.259,3.854-5.006,10.589-5.006,10.589a86.64,86.64,0,0,1-2.58,9.665,214.554,214.554,0,0,1,19.987,11.165c15.864,10.018,21.731,16.677,29.828,14.913a26.817,26.817,0,0,0,11.661-5.695c2.289-2.086,3.607-4.229,6.9-5.382,2.584-.9,3.833-.308,6.508-.677C935.034,306.617,938.6,305.446,942.674,301.552Z" transform="translate(27.343 13.427)" fill="#0ac789"></path><path id="Path_1912" data-name="Path 1912" d="M942.674,301.552s-3.806-24.736-10.916-30.559c-.363-.3-.727-.578-.727-.578-.726-.553-2.223-1.5-8.2-4.57A57.81,57.81,0,0,1,915.1,261c-5.68-4.144-7.118-6.334-7.615-7.139-1.542-2.5-1.754-4.2-3.809-5.711-1.682-1.241-4.709-2.436-7.138-1.427-3.511,1.458-2.068,5.983-5.711,10.945-1.235,1.684-2.473,2.623-13.324,8.091-9.661,4.868-11.012,5.3-11.63,5.879a3.377,3.377,0,0,0-.268.307s-.2.223-.381.443c-3.257,3.854-5,10.589-5,10.589a86.64,86.64,0,0,1-2.58,9.665" transform="translate(27.343 13.427)" fill="none" stroke="#000" stroke-linecap="round" stroke-linejoin="round" stroke-width="1"></path><path id="Path_1913" data-name="Path 1913" d="M899.238,286.874c3.14,6.586,6.5,10.224,14.056,19.411,9.214,11.2,18.016,15.149,20.838,23.125,1.534,4.343,2.144,6.772,2.144,6.772,1.307,5.215,1.7,9.876,2.441,9.863.491-.008.377-2.086,1.525-2.542s2.385,1.214,4.474,2.542c3.822,2.429,9.128,2.81,10.271,1.119.36-.534.2-1.11-.306-2.95-2.351-8.6-2.486-9.508-3.661-10.677-1.686-1.676-3.463-1.855-5.185-2.441-5.659-1.923-9.152-7.31-12.2-14.44-4.046-9.451-9.364-20.945-17.04-36.381" transform="translate(53.426 34.703)" fill="none" stroke="#000" stroke-linecap="round" stroke-linejoin="round" stroke-width="1"></path><path id="Path_1914" data-name="Path 1914" d="M896.571,276.776a63.235,63.235,0,0,0,3.8,11.118c.181.4.363.794.543,1.175" transform="translate(51.753 32.508)" fill="#fff"></path><path id="Path_1915" data-name="Path 1915" d="M896.571,276.776a63.235,63.235,0,0,0,3.8,11.118c.181.4.363.794.543,1.175" transform="translate(51.753 32.508)" fill="none" stroke="#000" stroke-linecap="round" stroke-linejoin="round" stroke-width="1"></path><path id="Path_1916" data-name="Path 1916" d="M857.571,274.776a23.058,23.058,0,0,0,14.643,8.405q.813-2.846,1.627-5.695-.271,3.256-.542,6.508-.4,5.015-.724,10.145-.964,15.437-1.084,29.965a129.388,129.388,0,0,0,55.319,0q-.747-16.879-1.492-33.761" transform="translate(27.299 31.254)" fill="#0ac789"></path><path id="Path_1917" data-name="Path 1917" d="M857.571,274.776a23.058,23.058,0,0,0,14.643,8.405q.813-2.846,1.627-5.695-.271,3.256-.542,6.508-.4,5.015-.724,10.145-.964,15.437-1.084,29.965a129.388,129.388,0,0,0,55.319,0q-.747-16.879-1.492-33.761" transform="translate(27.299 31.254)" fill="none" stroke="#000" stroke-linecap="round" stroke-linejoin="round" stroke-width="1"></path><path id="Path_1918" data-name="Path 1918" d="M916.21,279.752a21.845,21.845,0,0,1-5.416,4.466A22.433,22.433,0,0,1,899.4,287.2" transform="translate(53.53 34.374)" fill="none" stroke="#000" stroke-linecap="round" stroke-linejoin="round" stroke-width="1"></path><path id="Path_1919" data-name="Path 1919" d="M873.873,244.424a34.941,34.941,0,0,0-.047,3.8,36.04,36.04,0,0,0,.713,5.39c.14.628,3.194,13.61,10.677,14.948,3.309.592,6.072-1.346,9.661-3.864,4.035-2.833,10.838-7.6,12.011-15.662,1.261-8.636-4.02-20.5-13.774-21.843C881.517,225.6,874.212,240.322,873.873,244.424Z" transform="translate(37.472 1.342)" fill="#fff"></path><path id="Path_1920" data-name="Path 1920" d="M873.873,244.424a34.941,34.941,0,0,0-.047,3.8,36.04,36.04,0,0,0,.713,5.39c.14.628,3.194,13.61,10.677,14.948,3.309.592,6.072-1.346,9.661-3.864,4.035-2.833,10.838-7.6,12.011-15.662,1.261-8.636-4.02-20.5-13.774-21.843C881.517,225.6,874.212,240.322,873.873,244.424Z" transform="translate(37.472 1.342)" fill="none" stroke="#000" stroke-linecap="round" stroke-linejoin="round" stroke-width="1"></path><path id="Path_1921" data-name="Path 1921" d="M915.542,240.706a19.291,19.291,0,0,1-2.1,11.767,17.954,17.954,0,0,1-3.226,4.2c.708-4.632-.329-7.214-1.045-8.47a4.249,4.249,0,0,0-.273-.451c-1.219-1.63-2.8-2.044-6.873-3.56-1.079-.4-.545-.22-1.674-.636a82.532,82.532,0,0,0-8.35-2.81c-3.882-.952-7.657-1.878-10.286.135a7.141,7.141,0,0,0-2.441,4.271c-4.265-2.244-15.95-8.69-14.847-12.61.731-2.59,6.9-3.532,10.023-3.617.744-.021,2.574-.026,9.5,1.583,3.353.779,6.088,1.516,7.932,2.034-2.493-.067-5.807-.369-6.1-1.627-.355-1.515,3.767-4.009,7.322-5.085,1.834-.555,9.995-2.711,16.474,2.644C914.558,232.586,915.264,238.414,915.542,240.706Z" transform="translate(31.555 0)" fill="#1b53ee"></path><path id="Path_1922" data-name="Path 1922" d="M915.542,240.706a19.291,19.291,0,0,1-2.1,11.767,17.954,17.954,0,0,1-3.226,4.2c.708-4.632-.329-7.214-1.045-8.47a4.249,4.249,0,0,0-.273-.451c-1.219-1.63-2.8-2.044-6.873-3.56-1.079-.4-.545-.22-1.674-.636a82.532,82.532,0,0,0-8.35-2.81c-3.882-.952-7.657-1.878-10.286.135a7.141,7.141,0,0,0-2.441,4.271c-4.265-2.244-15.95-8.69-14.847-12.61.731-2.59,6.9-3.532,10.023-3.617.744-.021,2.574-.026,9.5,1.583,3.353.779,6.088,1.516,7.932,2.034-2.493-.067-5.807-.369-6.1-1.627-.355-1.515,3.767-4.009,7.322-5.085,1.834-.555,9.995-2.711,16.474,2.644C914.558,232.586,915.264,238.414,915.542,240.706Z" transform="translate(31.555 0)" fill="none" stroke="#1b53ee" stroke-linecap="round" stroke-linejoin="round" stroke-width="1"></path><path id="Path_1923" data-name="Path 1923" d="M873.733,240.6a10.6,10.6,0,0,1,5.831-4.746c1.91-.563,3.487-.327,5.695,0,2.75.41,5.236.779,7.457,2.577,2.133,1.725,2.911,3.867,4.1,7.152a31.2,31.2,0,0,1,1.728,7.626l5.56-1.627a12.206,12.206,0,0,0-1.085-8.677c-.342-.594-1.585-2.585-6.643-5.153-5.867-2.978-10.787-5.473-15.864-3.526A13.263,13.263,0,0,0,873.733,240.6Z" transform="translate(37.433 5.395)"></path><path id="Path_1924" data-name="Path 1924" d="M873.733,240.6a10.6,10.6,0,0,1,5.831-4.746c1.91-.563,3.487-.327,5.695,0,2.75.41,5.236.779,7.457,2.577,2.133,1.725,2.911,3.867,4.1,7.152a31.2,31.2,0,0,1,1.728,7.626l5.56-1.627a12.206,12.206,0,0,0-1.085-8.677c-.342-.594-1.585-2.585-6.643-5.153-5.867-2.978-10.787-5.473-15.864-3.526A13.263,13.263,0,0,0,873.733,240.6Z" transform="translate(37.433 5.395)" fill="none" stroke="#000" stroke-linecap="round" stroke-linejoin="round" stroke-width="1"></path><path id="Path_1925" data-name="Path 1925" d="M888.691,244.748a11.041,11.041,0,0,1,1.777-3.921q1.147-1.518,2.143-1.258t1.254,2.146a12.745,12.745,0,0,1-2.148,8.208q-1.147,1.516-2.143,1.256t-1.253-2.144A11.035,11.035,0,0,1,888.691,244.748Z" transform="translate(46.533 9.155)" fill="#fff"></path><g id="Group_1382" data-name="Group 1382" transform="translate(909.083 300.439)"><path id="Path_1926" data-name="Path 1926" d="M877.524,276.466l-3.806,1.265-1.265-3.806" transform="translate(-872.453 -269.719)" fill="none" stroke="#fff" stroke-linecap="round" stroke-linejoin="round" stroke-width="1"></path><path id="Path_1927" data-name="Path 1927" d="M873.231,279.352a13.751,13.751,0,0,1,26.187,4.461" transform="translate(-871.964 -271.34)" fill="none" stroke="#fff" stroke-linecap="round" stroke-linejoin="round" stroke-width="1"></path><path id="Path_1928" data-name="Path 1928" d="M886.778,284.022l3.806-1.265,1.265,3.806" transform="translate(-863.47 -264.181)" fill="none" stroke="#fff" stroke-linecap="round" stroke-linejoin="round" stroke-width="1"></path><path id="Path_1929" data-name="Path 1929" d="M899.21,284.478a13.753,13.753,0,0,1-26.19-4.463" transform="translate(-872.097 -265.9)" fill="none" stroke="#fff" stroke-linecap="round" stroke-linejoin="round" stroke-width="1"></path></g><path id="Path_1930" data-name="Path 1930" d="M886.238,307.4c.169.548,3.033,9.359,11.389,11.389a15.313,15.313,0,0,0,9.356-.814" transform="translate(45.274 51.71)" fill="#fff"></path><path id="Path_1931" data-name="Path 1931" d="M886.238,307.4c.169.548,3.033,9.359,11.389,11.389a15.313,15.313,0,0,0,9.356-.814" transform="translate(45.274 51.71)" fill="none" stroke="#000" stroke-linecap="round" stroke-linejoin="round" stroke-width="1"></path><path id="Path_1932" data-name="Path 1932" d="M879.349,239.978a17.645,17.645,0,0,1-1.289,6.915c-.675,1.624-1.5,2.841-.949,3.728.534.856,2.065.955,2.982.814a4.15,4.15,0,0,0,1.965-.88" transform="translate(39.438 9.434)" fill="none" stroke="#000" stroke-linecap="round" stroke-linejoin="round" stroke-width="1"></path></g><line id="Line_772" data-name="Line 772" x1="93.987" transform="translate(824.989 508.932)" fill="none" stroke="#000" stroke-linecap="round" stroke-linejoin="round" stroke-width="1"></line><line id="Line_773" data-name="Line 773" x1="111.886" transform="translate(940.045 508.932)" fill="none" stroke="#000" stroke-linecap="round" stroke-linejoin="round" stroke-width="1"></line></g></g></svg> 